<svg xmlns="http://www.w3.org/2000/svg" xmlns:xlink="http://www.w3.org/1999/xlink" width="2000" zoomAndPan="magnify" viewBox="0 0 1500 1499.999933" height="2000" preserveAspectRatio="xMidYMid meet" version="1.0"><defs><g/><clipPath id="a0de527f10"><rect x="0" width="947" y="0" height="1411"/></clipPath></defs><rect x="-150" width="1800" fill="#ffffff" y="-149.999993" height="1799.99992" fill-opacity="1"/><rect x="-150" width="1800" fill="#ffffff" y="-149.999993" height="1799.99992" fill-opacity="1"/><g transform="matrix(1, 0, 0, 1, 301, 89)"><g clip-path="url(#a0de527f10)"><g fill="#000000" fill-opacity="1"><g transform="translate(6.212813, 1209.704955)"><g><path d="M 148.140625 0 L 478.390625 -384.609375 C 459.359375 -373.742188 432.628906 -368.3125 398.203125 -368.3125 C 358.335938 -368.3125 318.019531 -376.691406 277.25 -393.453125 C 236.476562 -410.210938 198.195312 -434.21875 162.40625 -465.46875 C 126.613281 -496.726562 97.390625 -538.179688 74.734375 -589.828125 C 52.085938 -641.472656 40.765625 -698.554688 40.765625 -761.078125 C 40.765625 -824.492188 52.769531 -881.34375 76.78125 -931.625 C 100.789062 -981.914062 132.957031 -1021.785156 173.28125 -1051.234375 C 213.601562 -1080.679688 257.769531 -1103.101562 305.78125 -1118.5 C 353.800781 -1133.90625 404.085938 -1141.609375 456.640625 -1141.609375 C 582.578125 -1141.609375 688.582031 -1104.910156 774.65625 -1031.515625 C 860.738281 -958.128906 903.78125 -867.984375 903.78125 -761.078125 C 903.78125 -670.472656 891.09375 -595.945312 865.71875 -537.5 C 840.351562 -479.0625 794.144531 -404.539062 727.09375 -313.9375 L 463.4375 0 Z M 638.765625 -761.078125 C 638.765625 -810.003906 622.90625 -850.546875 591.1875 -882.703125 C 559.476562 -914.867188 518.707031 -930.953125 468.875 -930.953125 C 419.039062 -930.953125 377.816406 -914.867188 345.203125 -882.703125 C 312.585938 -850.546875 296.28125 -810.003906 296.28125 -761.078125 C 296.28125 -711.242188 312.8125 -669.789062 345.875 -636.71875 C 378.945312 -603.644531 419.945312 -587.109375 468.875 -587.109375 C 515.988281 -587.109375 556.082031 -603.644531 589.15625 -636.71875 C 622.226562 -669.789062 638.765625 -711.242188 638.765625 -761.078125 Z M 638.765625 -761.078125 "/></g></g></g></g></g></svg>