<svg xmlns="http://www.w3.org/2000/svg" xmlns:xlink="http://www.w3.org/1999/xlink" width="2000" zoomAndPan="magnify" viewBox="0 0 1500 1499.999933" height="2000" preserveAspectRatio="xMidYMid meet" version="1.0"><defs><g/><clipPath id="02ffadd63c"><rect x="0" width="648" y="0" height="1159"/></clipPath></defs><g transform="matrix(1, 0, 0, 1, 826, 209)"><g clip-path="url(#02ffadd63c)"><g fill="#ffffff" fill-opacity="1"><g transform="translate(4.233159, 827.836418)"><g><path d="M 101.296875 0 L 327.140625 -263.015625 C 314.128906 -255.578125 295.851562 -251.859375 272.3125 -251.859375 C 245.050781 -251.859375 217.476562 -257.585938 189.59375 -269.046875 C 161.707031 -280.515625 135.523438 -296.9375 111.046875 -318.3125 C 86.578125 -339.6875 66.597656 -368.03125 51.109375 -403.34375 C 35.617188 -438.664062 27.875 -477.695312 27.875 -520.4375 C 27.875 -563.800781 36.082031 -602.675781 52.5 -637.0625 C 68.925781 -671.457031 90.925781 -698.722656 118.5 -718.859375 C 146.070312 -738.992188 176.273438 -754.328125 209.109375 -764.859375 C 241.941406 -775.390625 276.328125 -780.65625 312.265625 -780.65625 C 398.390625 -780.65625 470.878906 -755.5625 529.734375 -705.375 C 588.585938 -655.1875 618.015625 -593.539062 618.015625 -520.4375 C 618.015625 -458.488281 609.335938 -407.53125 591.984375 -367.5625 C 574.640625 -327.601562 543.050781 -276.644531 497.21875 -214.6875 L 316.921875 0 Z M 436.8125 -520.4375 C 436.8125 -553.894531 425.96875 -581.617188 404.28125 -603.609375 C 382.59375 -625.609375 354.707031 -636.609375 320.625 -636.609375 C 286.550781 -636.609375 258.363281 -625.609375 236.0625 -603.609375 C 213.757812 -581.617188 202.609375 -553.894531 202.609375 -520.4375 C 202.609375 -486.363281 213.914062 -458.019531 236.53125 -435.40625 C 259.144531 -412.789062 287.179688 -401.484375 320.640625 -401.484375 C 352.859375 -401.484375 380.273438 -412.789062 402.890625 -435.40625 C 425.503906 -458.019531 436.8125 -486.363281 436.8125 -520.4375 Z M 436.8125 -520.4375 "/></g></g></g></g></g><g fill="#ffffff" fill-opacity="1"><g transform="translate(31.663247, 1038.861515)"><g><path d="M 233.414062 -220.242188 L 233.414062 -162.117188 C 217.519531 -199.808594 176.648438 -224.332031 133.054688 -224.332031 C 69.480469 -224.332031 17.710938 -174.378906 17.710938 -109.894531 C 17.710938 -43.59375 69.480469 4.996094 133.507812 4.996094 C 176.648438 4.996094 212.070312 -15.894531 233.414062 -56.308594 L 233.414062 0 L 246.582031 0 L 246.582031 -220.242188 Z M 132.144531 -212.070312 C 188.910156 -212.070312 235.230469 -167.566406 235.230469 -108.988281 C 235.230469 -51.3125 189.816406 -6.8125 133.960938 -6.8125 C 76.289062 -6.8125 31.332031 -51.3125 31.332031 -109.894531 C 31.332031 -167.113281 76.746094 -212.070312 132.144531 -212.070312 Z M 132.144531 -212.070312 "/></g></g></g><g fill="#ffffff" fill-opacity="1"><g transform="translate(290.505055, 1038.861515)"><g><path d="M 36.328125 -333.769531 L 36.328125 -118.976562 C 36.328125 -73.566406 37.238281 -47.226562 64.03125 -20.433594 C 78.5625 -5.902344 103.082031 5.449219 132.601562 5.449219 C 133.054688 5.449219 135.777344 5.449219 139.410156 5.449219 L 139.410156 -6.359375 L 135.777344 -6.359375 C 110.347656 -6.359375 89.003906 -14.984375 73.566406 -29.515625 C 51.3125 -50.859375 49.496094 -78.105469 49.496094 -123.519531 L 49.496094 -333.769531 Z M 36.328125 -333.769531 "/></g></g></g><g fill="#ffffff" fill-opacity="1"><g transform="translate(390.86275, 1038.861515)"><g><path d="M 10.898438 -220.242188 L 10.898438 -207.527344 L 110.347656 -207.527344 L 110.347656 0 L 123.519531 0 L 123.519531 -207.527344 L 221.605469 -207.527344 L 221.605469 -220.242188 Z M 10.898438 -220.242188 "/></g></g></g><g fill="#ffffff" fill-opacity="1"><g transform="translate(596.11968, 1038.861515)"><g><path d="M 39.507812 -220.242188 L 39.507812 0 L 160.300781 0 L 160.300781 -12.714844 L 52.675781 -12.714844 L 52.675781 -106.261719 L 160.300781 -106.261719 L 160.300781 -118.976562 L 52.675781 -118.976562 L 52.675781 -207.527344 L 160.300781 -207.527344 L 160.300781 -220.242188 Z M 39.507812 -220.242188 "/></g></g></g><g fill="#ffffff" fill-opacity="1"><g transform="translate(768.68082, 1038.861515)"><g><path d="M 36.328125 0 L 49.496094 0 L 49.496094 -103.082031 C 49.953125 -143.5 52.675781 -168.929688 73.566406 -188.910156 C 89.003906 -203.441406 110.347656 -212.070312 135.777344 -212.070312 L 139.410156 -212.070312 L 139.410156 -223.875 C 135.777344 -224.332031 134.417969 -224.332031 131.691406 -224.332031 C 104.898438 -224.332031 79.46875 -213.433594 64.03125 -197.992188 C 37.238281 -171.199219 36.328125 -144.859375 36.328125 -99.449219 Z M 36.328125 0 "/></g></g></g></svg>